<?xml version="1.0" standalone="no"?><!DOCTYPE svg PUBLIC "-//W3C//DTD SVG 1.1//EN" "http://www.w3.org/Graphics/SVG/1.1/DTD/svg11.dtd"><svg t="1622268726715" class="icon" viewBox="0 0 1024 1024" version="1.1" xmlns="http://www.w3.org/2000/svg" p-id="5710" xmlns:xlink="http://www.w3.org/1999/xlink" width="200" height="200"><defs><style type="text/css"></style></defs><path d="M543.671 92.12l109.328 92.585L653 129c0-25.405 20.595-46 46-46h90c25.405 0 46 20.595 46 46v209.833l123.865 104.898c22.295 18.88 25.063 52.26 6.182 74.556A52.9 52.9 0 0 1 924.678 537h-71.679L853 839.5c0 44.459-36.041 80.5-80.5 80.5H632.2V724.316c0-31.757-25.744-57.5-57.5-57.5h-115c-31.439 0-56.985 25.231-57.492 56.549l-0.008 0.95V920H243.5c-44.459 0-80.5-36.041-80.5-80.5V537H99.057c-29.215 0-52.9-23.684-52.9-52.9a52.9 52.9 0 0 1 18.484-40.173L475.067 92.315c19.72-16.894 48.788-16.977 68.604-0.196z" fill="#49a521" p-id="5711"></path></svg>