<?xml version="1.0" standalone="no"?><!DOCTYPE svg PUBLIC "-//W3C//DTD SVG 1.1//EN" "http://www.w3.org/Graphics/SVG/1.1/DTD/svg11.dtd"><svg t="1622269057576" class="icon" viewBox="0 0 1024 1024" version="1.1" xmlns="http://www.w3.org/2000/svg" p-id="7873" xmlns:xlink="http://www.w3.org/1999/xlink" width="200" height="200"><defs><style type="text/css"></style></defs><path d="M527.36 102.4a424.96 424.96 0 1 0 424.96 424.96A424.96 424.96 0 0 0 527.36 102.4z m0 212.48a84.992 84.992 0 1 1-84.992 84.992 84.992 84.992 0 0 1 84.992-84.992z m194.56 424.96H332.288c-6.144 0-17.92-14.336-17.408-21.504a197.632 197.632 0 0 1 211.968-190.976c113.152 0 204.8 60.928 212.992 190.976a17.92 17.92 0 0 1-17.92 21.504z" p-id="7874" fill="#8a8a8a"></path></svg>